<svg width="15.376953" height="15.043396" viewBox="0 0 15.377 15.0434" fill="none" xmlns="http://www.w3.org/2000/svg" xmlns:xlink="http://www.w3.org/1999/xlink">
	<desc>
			Created with Pixso.
	</desc>
	<defs/>
	<path id="Icon color" d="M15.37 7.71C15.37 11.03 13.25 13.97 10.11 15.02C10 15.06 9.87 15.04 9.77 14.97C9.67 14.89 9.61 14.78 9.61 14.65L9.61 12.59C9.62 12.04 9.49 11.49 9.22 11C9.18 10.94 9.18 10.86 9.22 10.8C9.25 10.74 9.31 10.7 9.38 10.69C11.25 10.49 12.3 9.75 12.3 7.71C12.34 6.76 12.01 5.83 11.38 5.12C11.47 4.82 11.52 4.51 11.53 4.2C11.52 3.91 11.49 3.63 11.41 3.36C11.36 3.18 11.19 3.06 11 3.09C10.3 3.19 9.65 3.5 9.13 4C8.17 3.81 7.19 3.81 6.24 4C5.72 3.5 5.07 3.19 4.36 3.09C4.18 3.06 4 3.18 3.96 3.36C3.88 3.63 3.84 3.91 3.84 4.2C3.84 4.51 3.89 4.82 3.99 5.12C3.35 5.83 3.03 6.76 3.07 7.71C3.07 9.85 4.23 10.57 6.36 10.75C6.1 11.1 5.91 11.5 5.83 11.93C5.83 11.93 5.83 11.98 5.83 12.02C5.83 12.06 5.83 12.09 5.83 12.13C5.8 12.37 5.58 12.55 5.34 12.52C5.22 12.52 5.11 12.49 5.01 12.43C4.59 12.17 4.22 11.85 3.92 11.46C3.72 11.24 3.52 11.03 3.3 10.83C3.16 10.71 3.01 10.61 2.85 10.53C2.73 10.47 2.59 10.47 2.48 10.53C2.37 10.6 2.3 10.73 2.3 10.86L2.3 10.9C2.3 11.03 2.37 11.16 2.48 11.23C2.75 11.46 2.99 11.73 3.19 12.04C3.51 12.55 3.93 13 4.41 13.36C4.73 13.58 5.1 13.69 5.49 13.69L5.76 13.69L5.76 14.65C5.76 14.78 5.7 14.89 5.6 14.97C5.5 15.04 5.37 15.06 5.25 15.02C1.53 13.78 -0.66 9.91 0.17 6.06C1.01 2.21 4.6 -0.38 8.51 0.04C12.41 0.46 15.37 3.77 15.37 7.71Z" fill="#222222" fill-opacity="1.000000" fill-rule="nonzero"/>
	<path id="Icon color" d="M10.11 15.02C10 15.06 9.87 15.04 9.77 14.97C9.67 14.89 9.61 14.78 9.61 14.65L9.61 12.59C9.62 12.04 9.49 11.49 9.22 11C9.18 10.94 9.18 10.86 9.22 10.8C9.25 10.74 9.31 10.7 9.38 10.69C11.25 10.49 12.3 9.75 12.3 7.71C12.34 6.76 12.01 5.83 11.38 5.12C11.47 4.82 11.52 4.51 11.53 4.2C11.52 3.91 11.49 3.63 11.41 3.36C11.36 3.18 11.19 3.06 11 3.09C10.3 3.19 9.65 3.5 9.13 4C8.17 3.81 7.19 3.81 6.24 4C5.72 3.5 5.07 3.19 4.36 3.09C4.18 3.06 4 3.18 3.96 3.36C3.88 3.63 3.84 3.91 3.84 4.2C3.84 4.51 3.89 4.82 3.99 5.12C3.35 5.83 3.03 6.76 3.07 7.71C3.07 9.85 4.23 10.57 6.36 10.75C6.1 11.1 5.91 11.5 5.83 11.93C5.83 11.93 5.83 11.98 5.83 12.02C5.83 12.06 5.83 12.09 5.83 12.13C5.8 12.37 5.58 12.55 5.34 12.52C5.22 12.52 5.11 12.49 5.01 12.43C4.59 12.17 4.22 11.85 3.92 11.46C3.72 11.24 3.52 11.03 3.3 10.83C3.16 10.71 3.01 10.61 2.85 10.53C2.73 10.47 2.59 10.47 2.48 10.53C2.37 10.6 2.3 10.73 2.3 10.86L2.3 10.9C2.3 11.03 2.37 11.16 2.48 11.23C2.75 11.46 2.99 11.73 3.19 12.04C3.51 12.55 3.93 13 4.41 13.36C4.73 13.58 5.1 13.69 5.49 13.69L5.76 13.69L5.76 14.65C5.76 14.78 5.7 14.89 5.6 14.97C5.5 15.04 5.37 15.06 5.25 15.02C1.53 13.78 -0.66 9.91 0.17 6.06C1.01 2.21 4.6 -0.38 8.51 0.04C12.41 0.46 15.37 3.77 15.37 7.71C15.37 11.03 13.25 13.97 10.11 15.02Z" stroke="#979797" stroke-opacity="0" stroke-width="0.000000"/>
</svg>
