<svg width="17.646484" height="15.043335" viewBox="0 0 17.6465 15.0433" fill="none" xmlns="http://www.w3.org/2000/svg" xmlns:xlink="http://www.w3.org/1999/xlink">
	<desc>
			Created with Pixso.
	</desc>
	<defs/>
	<path id="Icon color" d="M17.62 2.18C17.16 2.78 16.61 3.32 15.99 3.75C15.99 3.91 15.99 4.07 15.99 4.23C15.99 7.12 14.84 9.9 12.79 11.93C10.74 13.96 7.97 15.08 5.09 15.04C3.42 15.04 1.78 14.66 0.29 13.92C0.21 13.89 0.15 13.81 0.16 13.72L0.16 13.62C0.16 13.5 0.26 13.39 0.38 13.39C2.02 13.34 3.6 12.77 4.89 11.77C3.41 11.74 2.08 10.86 1.47 9.5C1.44 9.43 1.45 9.34 1.49 9.28C1.54 9.21 1.62 9.18 1.7 9.19C2.15 9.23 2.6 9.19 3.04 9.06C1.4 8.72 0.17 7.36 0 5.69C-0.01 5.61 0.02 5.54 0.09 5.49C0.16 5.44 0.24 5.43 0.31 5.46C0.75 5.66 1.23 5.76 1.7 5.76C0.27 4.82 -0.35 3.03 0.2 1.4C0.25 1.24 0.39 1.12 0.55 1.09C0.72 1.06 0.89 1.11 1 1.24C2.93 3.3 5.59 4.53 8.41 4.67C8.34 4.38 8.3 4.08 8.3 3.78C8.33 2.22 9.29 0.83 10.75 0.26C12.19 -0.31 13.84 0.06 14.92 1.19C15.65 1.04 16.36 0.8 17.03 0.45C17.08 0.42 17.14 0.42 17.18 0.45C17.22 0.5 17.22 0.56 17.18 0.61C16.86 1.35 16.32 1.97 15.63 2.38C16.24 2.31 16.83 2.17 17.4 1.95C17.44 1.92 17.51 1.92 17.56 1.95C17.59 1.97 17.62 2.01 17.64 2.05C17.65 2.09 17.64 2.14 17.62 2.18Z" fill="#222222" fill-opacity="1.000000" fill-rule="nonzero"/>
	<path id="Icon color" d="M15.99 3.75C15.99 3.91 15.99 4.07 15.99 4.23C15.99 7.12 14.84 9.9 12.79 11.93C10.74 13.96 7.97 15.08 5.09 15.04C3.42 15.04 1.78 14.66 0.29 13.92C0.21 13.89 0.15 13.81 0.16 13.72L0.16 13.62C0.16 13.5 0.26 13.39 0.38 13.39C2.02 13.34 3.6 12.77 4.89 11.77C3.41 11.74 2.08 10.86 1.47 9.5C1.44 9.43 1.45 9.34 1.49 9.28C1.54 9.21 1.62 9.18 1.7 9.19C2.15 9.23 2.6 9.19 3.04 9.06C1.4 8.72 0.17 7.36 0 5.69C-0.01 5.61 0.02 5.54 0.09 5.49C0.16 5.44 0.24 5.43 0.31 5.46C0.75 5.66 1.23 5.76 1.7 5.76C0.27 4.82 -0.35 3.03 0.2 1.4C0.25 1.24 0.39 1.12 0.55 1.09C0.72 1.06 0.89 1.11 1 1.24C2.93 3.3 5.59 4.53 8.41 4.67C8.34 4.38 8.3 4.08 8.3 3.78C8.33 2.22 9.29 0.83 10.75 0.26C12.19 -0.31 13.84 0.06 14.92 1.19C15.65 1.04 16.36 0.8 17.03 0.45C17.08 0.42 17.14 0.42 17.18 0.45C17.22 0.5 17.22 0.56 17.18 0.61C16.86 1.35 16.32 1.97 15.63 2.38C16.24 2.31 16.83 2.17 17.4 1.95C17.44 1.92 17.51 1.92 17.56 1.95C17.59 1.97 17.62 2.01 17.64 2.05C17.65 2.09 17.64 2.14 17.62 2.18C17.16 2.78 16.61 3.32 15.99 3.75Z" stroke="#979797" stroke-opacity="0" stroke-width="0.000000"/>
</svg>
