<svg width="8.333984" height="15.043335" viewBox="0 0 8.33398 15.0433" fill="none" xmlns="http://www.w3.org/2000/svg" xmlns:xlink="http://www.w3.org/1999/xlink">
	<desc>
			Created with Pixso.
	</desc>
	<defs/>
	<path id="Icon color" d="M7.91 2.5L5.41 2.5C4.95 2.5 4.58 2.88 4.58 3.34L4.58 5.85L7.91 5.85C8.01 5.84 8.1 5.89 8.15 5.96C8.21 6.04 8.23 6.14 8.19 6.23L7.58 8.07C7.52 8.24 7.36 8.35 7.19 8.35L4.58 8.35L4.58 14.62C4.58 14.85 4.39 15.04 4.16 15.04L2.08 15.04C1.85 15.04 1.66 14.85 1.66 14.62L1.66 8.35L0.41 8.35C0.18 8.35 0 8.17 0 7.93L0 6.26C0 6.03 0.18 5.85 0.41 5.85L1.66 5.85L1.66 3.34C1.66 1.49 3.15 0 5 0L7.91 0C8.14 0 8.33 0.18 8.33 0.41L8.33 2.08C8.33 2.32 8.14 2.5 7.91 2.5Z" fill="#222222" fill-opacity="1.000000" fill-rule="nonzero"/>
</svg>
