<svg width="8.000000" height="4.266602" viewBox="0 0 8 4.2666" fill="none" xmlns="http://www.w3.org/2000/svg" xmlns:xlink="http://www.w3.org/1999/xlink">
	<desc>
			Created with Pixso.
	</desc>
	<defs/>
	<path id="Icon color" d="M7.23 0.05C7.26 0.02 7.32 0 7.37 0C7.42 0 7.47 0.02 7.51 0.05L7.93 0.45C7.97 0.48 8 0.53 8 0.58C8 0.63 7.97 0.68 7.93 0.71L4.26 4.18C4.2 4.23 4.13 4.26 4.05 4.26L3.94 4.26C3.86 4.26 3.79 4.23 3.73 4.18L0.06 0.71C0.02 0.68 0 0.63 0 0.58C0 0.53 0.02 0.48 0.06 0.45L0.48 0.05C0.52 0.02 0.57 0 0.62 0C0.67 0 0.73 0.02 0.76 0.05L4 3.1L7.23 0.05Z" fill="#222222" fill-opacity="1.000000" fill-rule="nonzero"/>
</svg>
