<svg width="12.972656" height="12.000000" viewBox="0 0 12.9727 12" fill="none" xmlns="http://www.w3.org/2000/svg" xmlns:xlink="http://www.w3.org/1999/xlink">
	<desc>
			Created with Pixso.
	</desc>
	<defs/>
	<mask id="mask_7_423" fill="white">
		<path id="Icon color" d="M9.40625 0C8.29102 0.034668 7.23828 0.519043 6.48633 1.34277C5.73438 0.519043 4.68164 0.034668 3.56836 0C1.59766 0 0 1.59717 0 3.56763C0 6.11035 3.08203 8.91895 4.54102 10.3784L6.01953 11.8572C6.11133 11.9485 6.23438 12 6.36328 12L6.60938 12C6.73828 12 6.86328 11.9485 6.95312 11.8572L8.43164 10.3784C9.89258 8.91895 12.9727 6.11035 12.9727 3.56763C12.9727 1.59717 11.375 0 9.40625 0ZM6.48633 10.4885L7.91406 9.08105C9.23047 7.78369 11.6758 5.35767 11.6758 3.56738C11.6758 2.96191 11.4336 2.38159 11.0039 1.95532C10.5742 1.52881 9.99219 1.29199 9.38672 1.29712C8.37695 1.39087 7.4668 1.94043 6.91406 2.78906C6.85352 2.86987 6.75781 2.91772 6.6543 2.9187L6.36328 2.9187C6.21094 2.91846 6.06836 2.84912 5.97461 2.73071C5.42969 1.91333 4.54492 1.38623 3.56836 1.29712C2.31445 1.29712 1.29688 2.31372 1.29688 3.56738C1.29688 5.35767 3.74219 7.78369 5.05859 9.08105L6.48633 10.4885Z" clip-rule="evenodd" fill="" fill-opacity="1.000000" fill-rule="evenodd"/>
	</mask>
	<path id="Icon color" d="M9.40625 0C8.29102 0.034668 7.23828 0.519043 6.48633 1.34277C5.73438 0.519043 4.68164 0.034668 3.56836 0C1.59766 0 0 1.59717 0 3.56763C0 6.11035 3.08203 8.91895 4.54102 10.3784L6.01953 11.8572C6.11133 11.9485 6.23438 12 6.36328 12L6.60938 12C6.73828 12 6.86328 11.9485 6.95312 11.8572L8.43164 10.3784C9.89258 8.91895 12.9727 6.11035 12.9727 3.56763C12.9727 1.59717 11.375 0 9.40625 0ZM6.48633 10.4885L7.91406 9.08105C9.23047 7.78369 11.6758 5.35767 11.6758 3.56738C11.6758 2.96191 11.4336 2.38159 11.0039 1.95532C10.5742 1.52881 9.99219 1.29199 9.38672 1.29712C8.37695 1.39087 7.4668 1.94043 6.91406 2.78906C6.85352 2.86987 6.75781 2.91772 6.6543 2.9187L6.36328 2.9187C6.21094 2.91846 6.06836 2.84912 5.97461 2.73071C5.42969 1.91333 4.54492 1.38623 3.56836 1.29712C2.31445 1.29712 1.29688 2.31372 1.29688 3.56738C1.29688 5.35767 3.74219 7.78369 5.05859 9.08105L6.48633 10.4885Z" clip-rule="evenodd" fill="#7247CA" fill-opacity="1.000000" fill-rule="evenodd" mask="url(#mask_7_423)"/>
	<path id="Icon color" d="" fill="#979797" fill-opacity="0.000000" fill-rule="nonzero"/>
</svg>
