<svg width="16.000000" height="16.000000" viewBox="0 0 16 16" fill="none" xmlns="http://www.w3.org/2000/svg" xmlns:xlink="http://www.w3.org/1999/xlink">
	<desc>
			Created with Pixso.
	</desc>
	<defs/>
	<path id="Icon color" d="M15.8867 14.6313L12.3301 11.0715C12.2168 10.9534 12.0879 10.8489 11.9492 10.76L11.0605 10.146C12.8887 7.88086 12.9043 4.64966 11.1016 2.36548C9.29688 0.0812988 6.15234 -0.646484 3.53125 0.613281C0.908203 1.8728 -0.492188 4.78369 0.158203 7.62231C0.808594 10.4609 3.33594 12.47 6.24414 12.4597C7.6543 12.4602 9.02344 11.98 10.127 11.0981L10.793 11.988C10.873 12.1028 10.9609 12.21 11.0605 12.3086L14.6152 15.8684C14.6992 15.9526 14.8125 16 14.9297 16C15.0488 16 15.1621 15.9526 15.2461 15.8684L15.8672 15.2454C16.0371 15.0784 16.0449 14.8079 15.8867 14.6313ZM1.79883 6.22974C1.79883 8.68726 3.78711 10.6794 6.24219 10.6794C7.41992 10.6794 8.55078 10.2107 9.38477 9.37622C10.2168 8.54175 10.6855 7.40991 10.6855 6.22974C10.6855 3.77222 8.69727 1.78003 6.24219 1.78003C3.78711 1.78003 1.79883 3.77222 1.79883 6.22974Z" clip-rule="evenodd" fill="#222222" fill-opacity="1.000000" fill-rule="evenodd"/>
</svg>
