<svg width="15.750000" height="14.000000" viewBox="0 0 15.75 14" fill="none" xmlns="http://www.w3.org/2000/svg" xmlns:xlink="http://www.w3.org/1999/xlink">
	<desc>
			Created with Pixso.
	</desc>
	<defs/>
	<path id="Icon color" d="M8.75977 13.125L8.75977 0.875C8.75977 0.391724 8.36719 0 7.88281 0L7.36719 0C7.13672 0.000976562 6.91602 0.092041 6.75391 0.253784L3.39844 3.60498C2.90625 4.09741 2.23828 4.37439 1.54102 4.375C0.689453 4.375 0 5.06445 0 5.91504L0 8.08496C0 8.93555 0.689453 9.625 1.54102 9.625C2.23828 9.62561 2.90625 9.90259 3.39844 10.395L6.75391 13.7462C6.91602 13.908 7.13672 13.999 7.36719 14L7.88281 14C8.36719 14 8.75977 13.6083 8.75977 13.125ZM14.0137 2.38879C13.9297 2.30359 13.8184 2.25085 13.6992 2.23999C13.5781 2.23694 13.4609 2.28442 13.375 2.37122L12.7539 2.99255C12.5977 3.16028 12.5977 3.41968 12.7539 3.58752C14.4355 5.55225 14.4355 8.44788 12.7539 10.4125C12.5977 10.5803 12.5977 10.8397 12.7539 11.0076L13.375 11.6288C13.4609 11.7156 13.5781 11.7631 13.6992 11.76C13.8184 11.7507 13.9316 11.6978 14.0137 11.6112C16.3281 8.97156 16.3281 5.02844 14.0137 2.38879ZM10.9043 4.85632C10.9961 4.7677 11.1191 4.72021 11.2461 4.7251C11.373 4.73999 11.4883 4.80261 11.5703 4.90002C12.5059 6.14453 12.5059 7.85559 11.5703 9.1001C11.4902 9.19812 11.373 9.2583 11.2461 9.26636C11.1211 9.27454 10.998 9.23022 10.9043 9.1438L10.2832 8.51379C10.1348 8.36816 10.1074 8.13745 10.2227 7.96252C10.6074 7.37854 10.6074 6.62158 10.2227 6.0376C10.1074 5.86267 10.1348 5.63196 10.2832 5.48633L10.9043 4.85632Z" clip-rule="evenodd" fill="#222222" fill-opacity="1.000000" fill-rule="evenodd"/>
</svg>
