<svg width="12.250000" height="14.000000" viewBox="0 0 12.25 14" fill="none" xmlns="http://www.w3.org/2000/svg" xmlns:xlink="http://www.w3.org/1999/xlink">
	<desc>
			Created with Pixso.
	</desc>
	<defs/>
	<path id="Icon color" d="M6.12305 10.7072C6.00781 10.7072 5.89648 10.662 5.81641 10.5823L0.75 5.81409C0.667969 5.73682 0.621094 5.63159 0.621094 5.52173C0.621094 5.41199 0.667969 5.30676 0.75 5.22937L0.925781 5.0647C1.00781 4.98425 1.12109 4.93958 1.24023 4.94116L3.49805 4.94116L3.49805 0.411743C3.49805 0.184326 3.69336 0 3.93555 0L8.31055 0C8.55273 0 8.74805 0.184326 8.74805 0.411743L8.74805 4.94116L11.0059 4.94116C11.125 4.93958 11.2383 4.98425 11.3203 5.0647L11.4961 5.22937C11.5781 5.30676 11.625 5.41199 11.625 5.52173C11.625 5.63159 11.5781 5.73682 11.4961 5.81409L6.42969 10.5823C6.34961 10.662 6.23828 10.7072 6.12305 10.7072ZM12.25 13.5883L12.25 12.7646C12.25 12.5372 12.0547 12.3529 11.8125 12.3529L0.4375 12.3529C0.195312 12.3529 0 12.5372 0 12.7646L0 13.5883C0 13.8156 0.195312 14 0.4375 14L11.8125 14C12.0547 14 12.25 13.8156 12.25 13.5883Z" clip-rule="evenodd" fill="#222222" fill-opacity="1.000000" fill-rule="evenodd"/>
</svg>
