<svg width="17.644531" height="15.000000" viewBox="0 0 17.6445 15" fill="none" xmlns="http://www.w3.org/2000/svg" xmlns:xlink="http://www.w3.org/1999/xlink">
	<desc>
			Created with Pixso.
	</desc>
	<defs/>
	<path id="Icon color" d="M17.62 2.17C17.16 2.78 16.61 3.31 15.99 3.74C15.99 3.9 15.99 4.06 15.99 4.22C15.99 7.1 14.84 9.87 12.79 11.89C10.74 13.92 7.97 15.03 5.09 14.99C3.42 15 1.78 14.62 0.29 13.88C0.21 13.85 0.16 13.77 0.16 13.68L0.16 13.58C0.16 13.46 0.26 13.35 0.38 13.35C2.02 13.3 3.6 12.73 4.89 11.73C3.41 11.7 2.08 10.83 1.47 9.48C1.44 9.4 1.44 9.32 1.49 9.25C1.54 9.19 1.62 9.15 1.69 9.16C2.15 9.2 2.6 9.16 3.03 9.04C1.4 8.7 0.17 7.34 0 5.68C-0.01 5.6 0.03 5.52 0.09 5.47C0.16 5.43 0.24 5.42 0.31 5.45C0.75 5.64 1.23 5.74 1.71 5.75C0.27 4.81 -0.34 3.02 0.2 1.39C0.25 1.24 0.39 1.12 0.55 1.09C0.72 1.05 0.89 1.11 1 1.23C2.93 3.29 5.59 4.52 8.41 4.65C8.34 4.37 8.3 4.07 8.3 3.77C8.33 2.22 9.3 0.83 10.75 0.26C12.19 -0.31 13.84 0.06 14.92 1.18C15.66 1.04 16.36 0.8 17.03 0.45C17.07 0.42 17.14 0.42 17.19 0.45C17.21 0.5 17.21 0.56 17.19 0.61C16.86 1.34 16.32 1.96 15.64 2.37C16.24 2.3 16.83 2.16 17.4 1.95C17.44 1.92 17.51 1.92 17.55 1.95C17.6 1.97 17.62 2 17.64 2.04C17.65 2.09 17.64 2.13 17.62 2.17Z" fill="#222222" fill-opacity="1.000000" fill-rule="nonzero"/>
	<path id="Icon color" d="M15.99 3.74C15.99 3.9 15.99 4.06 15.99 4.22C15.99 7.1 14.84 9.87 12.79 11.89C10.74 13.92 7.97 15.03 5.09 14.99C3.42 15 1.78 14.62 0.29 13.88C0.21 13.85 0.16 13.77 0.16 13.68L0.16 13.58C0.16 13.46 0.26 13.35 0.38 13.35C2.02 13.3 3.6 12.73 4.89 11.73C3.41 11.7 2.08 10.83 1.47 9.48C1.44 9.4 1.44 9.32 1.49 9.25C1.54 9.19 1.62 9.15 1.69 9.16C2.15 9.2 2.6 9.16 3.03 9.04C1.4 8.7 0.17 7.34 0 5.68C-0.01 5.6 0.03 5.52 0.09 5.47C0.16 5.43 0.24 5.42 0.31 5.45C0.75 5.64 1.23 5.74 1.71 5.75C0.27 4.81 -0.34 3.02 0.2 1.39C0.25 1.24 0.39 1.12 0.55 1.09C0.72 1.05 0.89 1.11 1 1.23C2.93 3.29 5.59 4.52 8.41 4.65C8.34 4.37 8.3 4.07 8.3 3.77C8.33 2.22 9.3 0.83 10.75 0.26C12.19 -0.31 13.84 0.06 14.92 1.18C15.66 1.04 16.36 0.8 17.03 0.45C17.07 0.42 17.14 0.42 17.19 0.45C17.21 0.5 17.21 0.56 17.19 0.61C16.86 1.34 16.32 1.96 15.64 2.37C16.24 2.3 16.83 2.16 17.4 1.95C17.44 1.92 17.51 1.92 17.55 1.95C17.6 1.97 17.62 2 17.64 2.04C17.65 2.09 17.64 2.13 17.62 2.17C17.16 2.78 16.61 3.31 15.99 3.74Z" stroke="#979797" stroke-opacity="0" stroke-width="0.000000"/>
</svg>
