<svg width="15.375000" height="15.000000" viewBox="0 0 15.375 15" fill="none" xmlns="http://www.w3.org/2000/svg" xmlns:xlink="http://www.w3.org/1999/xlink">
	<desc>
			Created with Pixso.
	</desc>
	<defs/>
	<path id="Icon color" d="M15.37 7.69C15.37 11 13.25 13.93 10.11 14.98C10 15.01 9.87 14.99 9.77 14.92C9.67 14.85 9.61 14.73 9.6 14.61L9.6 12.56C9.62 12 9.49 11.46 9.22 10.97C9.18 10.91 9.18 10.83 9.22 10.76C9.25 10.71 9.31 10.67 9.37 10.66C11.25 10.46 12.3 9.72 12.3 7.69C12.34 6.74 12.01 5.81 11.38 5.11C11.48 4.81 11.52 4.5 11.53 4.18C11.53 3.9 11.49 3.62 11.41 3.35C11.37 3.17 11.19 3.05 11.01 3.08C10.3 3.18 9.64 3.49 9.13 3.98C8.17 3.8 7.19 3.8 6.24 3.98C5.72 3.49 5.07 3.18 4.36 3.08C4.18 3.05 4 3.17 3.96 3.35C3.88 3.62 3.84 3.9 3.84 4.18C3.85 4.5 3.89 4.81 3.99 5.11C3.35 5.81 3.03 6.74 3.07 7.69C3.07 9.83 4.23 10.54 6.36 10.72C6.1 11.06 5.92 11.47 5.83 11.89C5.83 11.89 5.83 11.95 5.83 11.99C5.83 12.02 5.83 12.06 5.83 12.09C5.8 12.34 5.58 12.51 5.34 12.49C5.22 12.48 5.11 12.45 5.01 12.39C4.59 12.14 4.22 11.81 3.92 11.43C3.73 11.21 3.52 11 3.3 10.8C3.16 10.68 3.01 10.58 2.85 10.5C2.73 10.44 2.59 10.44 2.48 10.5C2.37 10.57 2.3 10.7 2.3 10.83L2.3 10.87C2.3 11 2.37 11.12 2.48 11.19C2.76 11.43 3 11.7 3.19 12C3.51 12.51 3.92 12.96 4.41 13.32C4.73 13.54 5.1 13.65 5.49 13.65L5.76 13.65L5.76 14.61C5.76 14.73 5.7 14.85 5.6 14.92C5.5 14.99 5.37 15.01 5.25 14.98C1.53 13.74 -0.67 9.88 0.17 6.05C1.01 2.21 4.6 -0.38 8.51 0.04C12.42 0.46 15.37 3.76 15.37 7.69Z" fill="#222222" fill-opacity="1.000000" fill-rule="nonzero"/>
	<path id="Icon color" d="M10.11 14.98C10 15.01 9.87 14.99 9.77 14.92C9.67 14.85 9.61 14.73 9.6 14.61L9.6 12.56C9.62 12 9.49 11.46 9.22 10.97C9.18 10.91 9.18 10.83 9.22 10.76C9.25 10.71 9.31 10.67 9.37 10.66C11.25 10.46 12.3 9.72 12.3 7.69C12.34 6.74 12.01 5.81 11.38 5.11C11.48 4.81 11.52 4.5 11.53 4.18C11.53 3.9 11.49 3.62 11.41 3.35C11.37 3.17 11.19 3.05 11.01 3.08C10.3 3.18 9.64 3.49 9.13 3.98C8.17 3.8 7.19 3.8 6.24 3.98C5.72 3.49 5.07 3.18 4.36 3.08C4.18 3.05 4 3.17 3.96 3.35C3.88 3.62 3.84 3.9 3.84 4.18C3.85 4.5 3.89 4.81 3.99 5.11C3.35 5.81 3.03 6.74 3.07 7.69C3.07 9.83 4.23 10.54 6.36 10.72C6.1 11.06 5.92 11.47 5.83 11.89C5.83 11.89 5.83 11.95 5.83 11.99C5.83 12.02 5.83 12.06 5.83 12.09C5.8 12.34 5.58 12.51 5.34 12.49C5.22 12.48 5.11 12.45 5.01 12.39C4.59 12.14 4.22 11.81 3.92 11.43C3.73 11.21 3.52 11 3.3 10.8C3.16 10.68 3.01 10.58 2.85 10.5C2.73 10.44 2.59 10.44 2.48 10.5C2.37 10.57 2.3 10.7 2.3 10.83L2.3 10.87C2.3 11 2.37 11.12 2.48 11.19C2.76 11.43 3 11.7 3.19 12C3.51 12.51 3.92 12.96 4.41 13.32C4.73 13.54 5.1 13.65 5.49 13.65L5.76 13.65L5.76 14.61C5.76 14.73 5.7 14.85 5.6 14.92C5.5 14.99 5.37 15.01 5.25 14.98C1.53 13.74 -0.67 9.88 0.17 6.05C1.01 2.21 4.6 -0.38 8.51 0.04C12.42 0.46 15.37 3.76 15.37 7.69C15.37 11 13.25 13.93 10.11 14.98Z" stroke="#979797" stroke-opacity="0" stroke-width="0.000000"/>
</svg>
