<svg width="8.332031" height="15.000000" viewBox="0 0 8.33203 15" fill="none" xmlns="http://www.w3.org/2000/svg" xmlns:xlink="http://www.w3.org/1999/xlink">
	<desc>
			Created with Pixso.
	</desc>
	<defs/>
	<path id="Icon color" d="M7.91 2.5L5.41 2.5C4.95 2.5 4.58 2.87 4.58 3.33L4.58 5.83L7.91 5.83C8.01 5.83 8.1 5.87 8.15 5.95C8.21 6.02 8.23 6.12 8.19 6.21L7.58 8.05C7.52 8.21 7.37 8.33 7.19 8.33L4.58 8.33L4.58 14.58C4.58 14.81 4.39 15 4.16 15L2.08 15C1.85 15 1.66 14.81 1.66 14.58L1.66 8.33L0.41 8.33C0.18 8.33 0 8.14 0 7.91L0 6.25C0 6.01 0.18 5.83 0.41 5.83L1.66 5.83L1.66 3.33C1.66 1.49 3.16 0 5 0L7.91 0C8.14 0 8.33 0.18 8.33 0.41L8.33 2.08C8.33 2.31 8.14 2.5 7.91 2.5Z" fill="#222222" fill-opacity="1.000000" fill-rule="nonzero"/>
</svg>
