<svg width="4.265625" height="8.000000" viewBox="0 0 4.26562 8" fill="none" xmlns="http://www.w3.org/2000/svg" xmlns:xlink="http://www.w3.org/1999/xlink">
	<desc>
			Created with Pixso.
	</desc>
	<defs/>
	<path id="Icon color" d="M0.05 0.76C0.01 0.73 0 0.67 0 0.62C0 0.57 0.01 0.52 0.05 0.48L0.45 0.06C0.48 0.02 0.53 0 0.58 0C0.63 0 0.68 0.02 0.71 0.06L4.18 3.73C4.23 3.79 4.26 3.86 4.26 3.94L4.26 4.05C4.26 4.13 4.23 4.2 4.18 4.26L0.71 7.93C0.68 7.97 0.63 8 0.58 8C0.53 8 0.48 7.97 0.45 7.93L0.05 7.51C0.01 7.47 0 7.42 0 7.37C0 7.32 0.01 7.26 0.05 7.23L3.1 4L0.05 0.76Z" fill="#F5F5F7" fill-opacity="1.000000" fill-rule="nonzero"/>
</svg>
