<svg width="21.818359" height="23.999878" viewBox="0 0 21.8184 23.9999" fill="none" xmlns="http://www.w3.org/2000/svg" xmlns:xlink="http://www.w3.org/1999/xlink">
	<desc>
			Created with Pixso.
	</desc>
	<defs/>
	<path id="Vector" d="M7.23 23.99C3.27 23.97 0 16.68 0 12.97C0 6.9 5.04 5.58 6.98 5.58C7.86 5.58 8.79 5.89 9.62 6.16C10.19 6.35 10.79 6.55 11.12 6.55C11.32 6.55 11.79 6.38 12.2 6.23C13.08 5.92 14.18 5.52 15.46 5.52C15.46 5.52 15.46 5.52 15.47 5.52C16.42 5.52 19.31 5.71 21.05 8.07L21.46 8.62L20.87 9.02C20.03 9.59 18.5 10.63 18.5 12.69C18.5 15.13 20.24 16.06 21.07 16.52C21.43 16.72 21.81 16.92 21.81 17.37C21.81 17.66 19.22 23.96 15.45 23.96C14.53 23.96 13.88 23.71 13.31 23.49C12.72 23.27 12.22 23.07 11.39 23.07C10.97 23.07 10.44 23.25 9.88 23.44C9.11 23.7 8.24 23.99 7.25 23.99L7.23 23.99Z" fill="#222222" fill-opacity="1.000000" fill-rule="nonzero"/>
	<path id="Vector" d="M15.86 0C15.95 3.19 13.42 5.4 10.9 5.26C10.48 2.71 13.42 0 15.86 0Z" fill="#222222" fill-opacity="1.000000" fill-rule="nonzero"/>
</svg>
