<svg width="12.353516" height="12.072266" viewBox="0 0 12.3535 12.0723" fill="none" xmlns="http://www.w3.org/2000/svg" xmlns:xlink="http://www.w3.org/1999/xlink">
	<desc>
			Created with Pixso.
	</desc>
	<defs/>
	<path id="Icon color" d="M0 1.42017C0 0.635834 0.632812 0 1.41211 0C1.78711 0 2.14453 0.149628 2.41016 0.415955C2.67383 0.682281 2.82422 1.04352 2.82422 1.42017C2.82422 2.2045 2.19141 2.84033 1.41211 2.84033C0.632812 2.84033 0 2.2045 0 1.42017ZM12.3535 7.39261C12.3789 5.85516 11.3359 4.50787 9.84766 4.15451C8.85156 3.93857 7.8125 4.22174 7.06055 4.91434L7.06055 4.61609C7.06055 4.41998 6.90234 4.26102 6.70703 4.26102L4.94336 4.26102C4.74805 4.26102 4.58984 4.41998 4.58984 4.61609L4.58984 11.7172C4.58984 11.9133 4.74805 12.0723 4.94336 12.0723L6.70703 12.0723C6.90234 12.0723 7.06055 11.9133 7.06055 11.7172L7.06055 7.71216C7.04297 6.99902 7.53711 6.37622 8.23242 6.23514C8.64648 6.16327 9.07031 6.28052 9.38867 6.55505C9.70898 6.82959 9.89062 7.23288 9.88477 7.65536L9.88477 11.7172C9.88477 11.9133 10.041 12.0723 10.2363 12.0723L12.002 12.0723C12.1973 12.0723 12.3535 11.9133 12.3535 11.7172L12.3535 7.39261ZM2.81641 4.61581L2.81641 11.7172C2.81641 11.9133 2.6582 12.0723 2.46484 12.0723L0.699219 12.0723C0.503906 12.0723 0.345703 11.9133 0.345703 11.7172L0.345703 4.61581C0.345703 4.41971 0.503906 4.26074 0.699219 4.26074L2.46484 4.26074C2.6582 4.26074 2.81641 4.41971 2.81641 4.61581Z" clip-rule="evenodd" fill="#555555" fill-opacity="1.000000" fill-rule="evenodd"/>
</svg>
