<svg width="13.234375" height="11.317596" viewBox="0 0 13.2344 11.3176" fill="none" xmlns="http://www.w3.org/2000/svg" xmlns:xlink="http://www.w3.org/1999/xlink">
	<desc>
			Created with Pixso.
	</desc>
	<defs/>
	<path id="Icon color" d="M13.21 1.64C12.87 2.09 12.46 2.49 11.99 2.82C11.99 2.94 11.99 3.06 11.99 3.18C11.99 5.36 11.13 7.44 9.59 8.97C8.06 10.5 5.97 11.34 3.82 11.31C2.57 11.32 1.33 11.03 0.21 10.47C0.15 10.45 0.11 10.39 0.11 10.32L0.11 10.25C0.11 10.15 0.19 10.07 0.29 10.07C1.51 10.03 2.7 9.61 3.67 8.85C2.56 8.83 1.56 8.17 1.1 7.15C1.08 7.09 1.08 7.03 1.12 6.98C1.15 6.93 1.21 6.9 1.27 6.91C1.61 6.94 1.95 6.91 2.27 6.82C1.05 6.56 0.13 5.54 0 4.28C-0.01 4.22 0.02 4.16 0.07 4.13C0.11 4.09 0.18 4.09 0.23 4.11C0.56 4.26 0.92 4.33 1.28 4.34C0.2 3.63 -0.26 2.28 0.15 1.05C0.19 0.93 0.29 0.84 0.41 0.82C0.54 0.79 0.66 0.84 0.75 0.93C2.2 2.48 4.19 3.41 6.31 3.51C6.25 3.29 6.23 3.07 6.23 2.85C6.25 1.67 6.97 0.62 8.06 0.19C9.15 -0.23 10.38 0.04 11.19 0.89C11.74 0.78 12.27 0.6 12.77 0.34C12.81 0.32 12.85 0.32 12.89 0.34C12.91 0.38 12.91 0.42 12.89 0.46C12.65 1.01 12.24 1.48 11.72 1.79C12.18 1.74 12.62 1.63 13.05 1.47C13.08 1.44 13.13 1.44 13.16 1.47C13.19 1.48 13.22 1.51 13.23 1.54C13.24 1.57 13.23 1.61 13.21 1.64Z" fill="#555555" fill-opacity="1.000000" fill-rule="nonzero"/>
	<path id="Icon color" d="M11.99 2.82C11.99 2.94 11.99 3.06 11.99 3.18C11.99 5.36 11.13 7.44 9.59 8.97C8.06 10.5 5.97 11.34 3.82 11.31C2.57 11.32 1.33 11.03 0.21 10.47C0.15 10.45 0.11 10.39 0.11 10.32L0.11 10.25C0.11 10.15 0.19 10.07 0.29 10.07C1.51 10.03 2.7 9.61 3.67 8.85C2.56 8.83 1.56 8.17 1.1 7.15C1.08 7.09 1.08 7.03 1.12 6.98C1.15 6.93 1.21 6.9 1.27 6.91C1.61 6.94 1.95 6.91 2.27 6.82C1.05 6.56 0.13 5.54 0 4.28C-0.01 4.22 0.02 4.16 0.07 4.13C0.11 4.09 0.18 4.09 0.23 4.11C0.56 4.26 0.92 4.33 1.28 4.34C0.2 3.63 -0.26 2.28 0.15 1.05C0.19 0.93 0.29 0.84 0.41 0.82C0.54 0.79 0.66 0.84 0.75 0.93C2.2 2.48 4.19 3.41 6.31 3.51C6.25 3.29 6.23 3.07 6.23 2.85C6.25 1.67 6.97 0.62 8.06 0.19C9.15 -0.23 10.38 0.04 11.19 0.89C11.74 0.78 12.27 0.6 12.77 0.34C12.81 0.32 12.85 0.32 12.89 0.34C12.91 0.38 12.91 0.42 12.89 0.46C12.65 1.01 12.24 1.48 11.72 1.79C12.18 1.74 12.62 1.63 13.05 1.47C13.08 1.44 13.13 1.44 13.16 1.47C13.19 1.48 13.22 1.51 13.23 1.54C13.24 1.57 13.23 1.61 13.21 1.64C12.87 2.09 12.46 2.49 11.99 2.82Z" stroke="#979797" stroke-opacity="0" stroke-width="0.000000"/>
</svg>
