<svg width="24.000000" height="24.000000" viewBox="0 0 24 24" fill="none" xmlns="http://www.w3.org/2000/svg" xmlns:xlink="http://www.w3.org/1999/xlink">
	<desc>
			Created with Pixso.
	</desc>
	<defs/>
	<path id="Vector" d="M12 0C5.38 0 0 5.38 0 12C0 18.61 5.38 24 12 24C18.61 24 24 18.61 24 12C24 5.38 18.61 0 12 0ZM16.77 12.42L9.77 16.92C9.68 16.97 9.59 17 9.5 17C9.41 17 9.33 16.97 9.26 16.93C9.09 16.85 9 16.68 9 16.5L9 7.5C9 7.31 9.09 7.14 9.26 7.06C9.41 6.97 9.61 6.97 9.77 7.07L16.77 11.57C16.91 11.67 17 11.83 17 12C17 12.16 16.91 12.32 16.77 12.42Z" fill="#7247CA" fill-opacity="1.000000" fill-rule="nonzero"/>
</svg>
