<svg width="11.390625" height="13.000000" viewBox="0 0 11.3906 13" fill="none" xmlns="http://www.w3.org/2000/svg" xmlns:xlink="http://www.w3.org/1999/xlink">
	<desc>
			Created with Pixso.
	</desc>
	<defs/>
	<path id="Icon color" d="M11.39 6.36L11.39 6.65C11.39 6.92 11.24 7.18 11 7.32L1.74 12.72C1.17 13.05 0.89 13.05 0.64 12.9L0.38 12.76C0.15 12.62 0 12.37 0 12.11L0 0.9C0 0.62 0.14 0.37 0.38 0.23L0.64 0.08C0.89 -0.06 1.17 -0.06 1.9 0.36L11 5.68C11.24 5.83 11.39 6.08 11.39 6.36Z" fill="#7247CA" fill-opacity="1.000000" fill-rule="nonzero"/>
	<path id="Icon color" d="M11.39 6.65C11.39 6.92 11.24 7.18 11 7.32L1.74 12.72C1.17 13.05 0.89 13.05 0.64 12.9L0.38 12.76C0.15 12.62 0 12.37 0 12.11L0 0.9C0 0.62 0.14 0.37 0.38 0.23L0.64 0.08C0.89 -0.06 1.17 -0.06 1.9 0.36L11 5.68C11.24 5.83 11.39 6.08 11.39 6.36L11.39 6.65Z" stroke="#979797" stroke-opacity="0" stroke-width="0.000000"/>
</svg>
