<svg width="24.000000" height="24.000000" viewBox="0 0 24 24" fill="none" xmlns="http://www.w3.org/2000/svg" xmlns:xlink="http://www.w3.org/1999/xlink">
	<desc>
			Created with Pixso.
	</desc>
	<defs/>
	<path id="Vector" d="M12 24C18.62 24 24 18.62 24 12C24 5.37 18.62 0 12 0C5.37 0 0 5.37 0 12C0 18.62 5.37 24 12 24ZM16.87 17.65L16.87 17.65C16.06 17.65 13.51 14.82 6.35 16.29C6.16 16.34 5.91 16.42 5.77 16.42C4.86 16.42 4.68 15.05 5.66 14.84C9.63 13.97 13.68 14.04 17.13 16.11C17.96 16.63 17.61 17.65 16.87 17.65ZM18.17 14.48C18.06 14.45 18.09 14.55 17.57 14.28C14.55 12.49 10.04 11.76 6.03 12.85C5.8 12.92 5.67 12.98 5.45 12.98C4.38 12.98 4.1 11.37 5.26 11.04C9.98 9.71 15.04 10.49 18.56 12.58C18.95 12.81 19.11 13.11 19.11 13.53C19.1 14.06 18.7 14.48 18.17 14.48ZM4.54 6.99C9.07 5.67 15.91 6.09 20.17 8.57C21.26 9.2 20.83 10.79 19.67 10.79L19.67 10.79C19.42 10.79 19.26 10.73 19.04 10.6C15.6 8.55 9.44 8.05 5.45 9.17C5.28 9.21 5.06 9.29 4.83 9.29C4.19 9.29 3.7 8.79 3.7 8.15C3.7 7.49 4.11 7.12 4.54 6.99Z" fill="#222222" fill-opacity="1.000000" fill-rule="nonzero"/>
</svg>
