<svg width="5.333984" height="10.000000" viewBox="0 0 5.33398 10" fill="none" xmlns="http://www.w3.org/2000/svg" xmlns:xlink="http://www.w3.org/1999/xlink">
	<desc>
			Created with Pixso.
	</desc>
	<defs/>
	<path id="Icon color" d="M0.07 0.96C0.02 0.91 0 0.84 0 0.78C0 0.71 0.02 0.65 0.07 0.6L0.56 0.07C0.61 0.02 0.67 0 0.73 0C0.79 0 0.85 0.02 0.89 0.07L5.23 4.67C5.29 4.74 5.33 4.83 5.33 4.93L5.33 5.06C5.33 5.16 5.29 5.25 5.23 5.32L0.89 9.92C0.85 9.97 0.79 10 0.73 10C0.67 10 0.61 9.97 0.56 9.92L0.07 9.39C0.02 9.34 0 9.28 0 9.21C0 9.15 0.02 9.08 0.07 9.03L3.87 5L0.07 0.96Z" fill="#555555" fill-opacity="1.000000" fill-rule="nonzero"/>
</svg>
