<svg width="30.000000" height="30.000000" viewBox="0 0 30 30" fill="none" xmlns="http://www.w3.org/2000/svg" xmlns:xlink="http://www.w3.org/1999/xlink">
	<desc>
			Created with Pixso.
	</desc>
	<defs>
		<clipPath id="clip2109_787">
			<rect id="soundcloud 4" rx="-0.500000" width="29.000000" height="29.000000" transform="translate(0.500000 0.500000)" fill="white" fill-opacity="0"/>
		</clipPath>
	</defs>
	<rect id="soundcloud 4" rx="-0.500000" width="29.000000" height="29.000000" transform="translate(0.500000 0.500000)" fill="#FFFFFF" fill-opacity="0"/>
	<g clip-path="url(#clip2109_787)">
		<path id="Vector" d="M25.31 13.75C24.97 13.75 24.65 13.78 24.33 13.85C23.91 9.59 20.3 6.25 15.93 6.25C15.41 6.25 15 6.67 15 7.18L15 22.18C15 22.7 15.41 23.12 15.93 23.12L25.31 23.12C27.89 23.12 30 21.02 30 18.43C30 15.85 27.89 13.75 25.31 13.75Z" fill="#222222" fill-opacity="1.000000" fill-rule="nonzero"/>
		<path id="Vector" d="M11.25 9.06L11.25 22.18C11.25 22.7 11.66 23.12 12.18 23.12C12.7 23.12 13.12 22.7 13.12 22.18L13.12 9.06C13.12 8.54 12.7 8.12 12.18 8.12C11.66 8.12 11.25 8.54 11.25 9.06Z" fill="#222222" fill-opacity="1.000000" fill-rule="nonzero"/>
		<path id="Vector" d="M7.5 12.81L7.5 22.18C7.5 22.7 7.91 23.12 8.43 23.12C8.95 23.12 9.37 22.7 9.37 22.18L9.37 12.81C9.37 12.29 8.95 11.87 8.43 11.87C7.91 11.87 7.5 12.29 7.5 12.81Z" fill="#222222" fill-opacity="1.000000" fill-rule="nonzero"/>
		<path id="Vector" d="M3.75 22.18C3.75 22.7 4.16 23.12 4.68 23.12C5.2 23.12 5.62 22.7 5.62 22.18L5.62 12.81C5.62 12.29 5.2 11.87 4.68 11.87C4.16 11.87 3.75 12.29 3.75 12.81L3.75 22.18Z" fill="#222222" fill-opacity="1.000000" fill-rule="nonzero"/>
		<path id="Vector" d="M0.93 23.12C1.45 23.12 1.87 22.7 1.87 22.18L1.87 16.56C1.87 16.04 1.45 15.62 0.93 15.62C0.41 15.62 0 16.04 0 16.56L0 22.18C0 22.7 0.41 23.12 0.93 23.12Z" fill="#222222" fill-opacity="1.000000" fill-rule="nonzero"/>
	</g>
</svg>
