<svg width="12.300781" height="12.072021" viewBox="0 0 12.3008 12.072" fill="none" xmlns="http://www.w3.org/2000/svg" xmlns:xlink="http://www.w3.org/1999/xlink">
	<desc>
			Created with Pixso.
	</desc>
	<defs/>
	<path id="Icon color" d="M12.3 6.19C12.29 8.85 10.6 11.21 8.09 12.05C8 12.08 7.89 12.07 7.81 12.01C7.73 11.95 7.68 11.86 7.68 11.76L7.68 10.1C7.7 9.66 7.59 9.22 7.38 8.83C7.34 8.78 7.34 8.71 7.38 8.66C7.4 8.62 7.45 8.58 7.5 8.58C9 8.42 9.84 7.82 9.84 6.19C9.87 5.42 9.61 4.68 9.1 4.11C9.18 3.87 9.22 3.62 9.22 3.37C9.22 3.14 9.19 2.92 9.13 2.7C9.09 2.55 8.95 2.46 8.8 2.47C8.24 2.56 7.72 2.81 7.3 3.21C6.54 3.06 5.75 3.06 4.99 3.21C4.58 2.81 4.05 2.56 3.49 2.47C3.34 2.46 3.2 2.55 3.16 2.7C3.1 2.92 3.07 3.14 3.07 3.37C3.08 3.62 3.11 3.87 3.19 4.11C2.68 4.68 2.42 5.42 2.46 6.19C2.46 7.91 3.39 8.48 5.09 8.63C4.88 8.9 4.73 9.23 4.66 9.57C4.66 9.57 4.66 9.62 4.66 9.65C4.66 9.67 4.66 9.7 4.66 9.73C4.64 9.93 4.46 10.07 4.27 10.05C4.18 10.04 4.09 10.02 4.01 9.97C3.67 9.77 3.38 9.5 3.13 9.19C2.98 9.02 2.81 8.85 2.64 8.69C2.53 8.6 2.41 8.52 2.28 8.45C2.19 8.4 2.08 8.4 1.98 8.45C1.9 8.51 1.84 8.61 1.84 8.71L1.84 8.75C1.84 8.85 1.9 8.95 1.98 9.01C2.2 9.19 2.39 9.41 2.55 9.66C2.81 10.07 3.14 10.43 3.53 10.72C3.78 10.89 4.08 10.98 4.39 10.98L4.61 10.98L4.61 11.76C4.61 11.86 4.56 11.95 4.48 12.01C4.4 12.07 4.3 12.08 4.2 12.05C1.22 11.05 -0.53 7.95 0.14 4.87C0.81 1.78 3.68 -0.31 6.81 0.03C9.93 0.37 12.3 3.03 12.3 6.19Z" fill="#555555" fill-opacity="1.000000" fill-rule="nonzero"/>
</svg>
